<?xml version="1.0" encoding="utf-8"?>
<!-- Generator: Adobe Illustrator 17.0.2, SVG Export Plug-In . SVG Version: 6.00 Build 0)  -->
<!DOCTYPE svg PUBLIC "-//W3C//DTD SVG 1.1//EN" "http://www.w3.org/Graphics/SVG/1.1/DTD/svg11.dtd">
<svg version="1.1" id="Layer_1" xmlns="http://www.w3.org/2000/svg" xmlns:xlink="http://www.w3.org/1999/xlink" x="0px" y="0px"
	 width="1024px" height="1024px" viewBox="0 0 1024 1024" enable-background="new 0 0 1024 1024" xml:space="preserve">
<polygon fill="#707070" points="523.548,623.323 519.3,617.789 515.053,623.323 514.106,623.323 518.888,617.304 514.372,611.6 
	515.321,611.6 519.3,616.793 523.28,611.6 524.228,611.6 519.714,617.304 524.495,623.323 "/>
<polygon fill="#4A8CB2" points="506.968,429.298 506.968,445.397 502.43,452.81 499.556,437.692 "/>
<polygon fill="#4A8CB2" points="531.066,429.387 531.066,445.487 535.604,452.899 538.477,437.781 "/>
<path fill="#CDCCCB" d="M532.824,442.584c-0.775,3.275-1.594,5.861-2.096,7.355c-0.317,0.919-0.517,1.436-0.517,1.436h-22.265
	c0,0-0.202-0.517-0.519-1.436c-0.503-1.494-1.32-4.08-2.096-7.355c-2.04-8.661-3.793-22.106,1.28-32.722
	c0.099-0.216,0.199-0.416,0.301-0.618c0.072-0.13,0.143-0.273,0.215-0.401c2.414-4.598,6.22-8.605,11.95-11.334
	c5.733,2.729,9.539,6.737,11.968,11.334c0.072,0.129,0.143,0.272,0.215,0.401c0.099,0.202,0.201,0.417,0.301,0.618
	C536.617,420.478,534.864,433.922,532.824,442.584"/>
<path fill="#F2682A" d="M531.26,409.243h-24.348c2.412-4.769,6.262-8.92,12.167-11.736
	C524.982,400.323,528.831,404.474,531.26,409.243"/>
<path fill="#CDCCCB" d="M532.824,442.584c-0.775,3.275-1.594,5.861-2.096,7.355c-0.317,0.919-0.517,1.436-0.517,1.436h-22.265
	c0,0-0.202-0.517-0.519-1.436c-0.503-1.494-1.32-4.08-2.096-7.355H532.824z"/>
<path fill="#F2682A" d="M527.474,426.116c0,4.636-3.757,8.395-8.394,8.395c-4.636,0-8.395-3.759-8.395-8.395s3.76-8.394,8.395-8.394
	C523.717,417.722,527.474,421.48,527.474,426.116"/>
<path fill="#F7AC1A" d="M525.487,426.116c0,3.539-2.868,6.408-6.407,6.408c-3.539,0-6.406-2.868-6.406-6.408
	c0-3.538,2.867-6.407,6.406-6.407C522.619,419.709,525.487,422.578,525.487,426.116"/>
<path fill="#B43B25" d="M531.561,409.86h-24.953c0.102-0.216,0.203-0.416,0.303-0.618c0.07-0.13,0.143-0.273,0.215-0.402h23.918
	c0.07,0.129,0.143,0.272,0.215,0.402C531.359,409.444,531.461,409.659,531.561,409.86"/>
<path fill="#F7AC1A" d="M530.728,449.939c-0.315,0.918-0.518,1.436-0.518,1.436h-22.263c0,0-0.202-0.518-0.519-1.436H530.728z"/>
<polygon fill="#F7AC1A" points="521.608,456.581 526.977,460.099 525.901,455.431 525.571,453.993 523.229,453.993 514.942,453.993 
	512.6,453.993 512.269,455.431 511.191,460.099 516.602,456.555 519.108,472.424 "/>
<path fill="#707070" d="M343.744,626.31l0.535-0.608c1.019,1.262,2.112,1.724,3.955,1.724c2.33,0,4.225-1.19,4.225-4.027v-2.04
	c-0.802,1.214-2.38,2.306-4.225,2.306c-3.155,0-5.242-2.451-5.242-6.166c0-3.689,2.087-6.191,5.242-6.191
	c1.749,0,3.277,0.923,4.225,2.307v-2.015h0.727v11.799c0,3.349-2.112,4.682-4.952,4.682
	C346.268,628.08,345.104,627.742,343.744,626.31 M352.459,620.629v-6.287c-0.729-1.238-2.403-2.38-4.225-2.38
	c-2.863,0-4.442,2.453-4.442,5.536c0,3.083,1.579,5.51,4.442,5.51C350.056,623.008,351.73,621.868,352.459,620.629"/>
<path fill="#707070" d="M362.317,617.448c0-3.398,2.355-6.14,5.51-6.14c3.591,0,5.437,2.887,5.437,6.14v0.243h-10.122
	c0.072,2.866,1.942,5.268,4.927,5.268c1.651,0,2.986-0.607,4.078-1.773l0.436,0.462c-1.189,1.238-2.549,1.967-4.515,1.967
	C364.672,623.616,362.317,621.019,362.317,617.448 M367.803,611.963c-3.01,0-4.589,2.768-4.661,5.072h9.345
	C372.487,614.778,371.006,611.963,367.803,611.963"/>
<path fill="#707070" d="M382.539,621.259v-9.005h-1.942V611.6h1.942v-3.205h0.729v3.205h2.379v0.655h-2.379v9.005
	c0,0.995,0.388,1.7,1.262,1.7c0.583,0,1.092-0.291,1.384-0.632l0.437,0.559c-0.461,0.436-0.946,0.728-1.821,0.728
	C383.171,623.614,382.539,622.716,382.539,621.259"/>
<path fill="#707070" d="M405.361,627.231c0.266,0.121,0.728,0.195,1.019,0.195c0.777,0,1.31-0.342,1.845-1.604l1.068-2.428
	l-5.024-11.795h0.85l4.612,10.874l4.587-10.874h0.849l-6.214,14.491c-0.558,1.262-1.408,1.991-2.573,1.991
	c-0.413,0-0.874-0.075-1.166-0.17L405.361,627.231z"/>
<path fill="#707070" d="M422.477,617.448c0-3.446,2.159-6.14,5.461-6.14c3.325,0,5.462,2.694,5.462,6.14
	c0,3.449-2.137,6.166-5.462,6.166C424.636,623.614,422.477,620.897,422.477,617.448 M432.598,617.448c0-2.838-1.65-5.487-4.66-5.487
	c-2.986,0-4.66,2.649-4.66,5.487c0,2.866,1.674,5.511,4.66,5.511C430.948,622.959,432.598,620.314,432.598,617.448"/>
<path fill="#707070" d="M450.443,623.323v-1.796c-0.995,1.117-2.622,2.087-4.248,2.087c-2.33,0-3.666-1.019-3.666-3.787V611.6h0.729
	v8.228c0,2.452,1.213,3.132,3.034,3.132c1.603,0,3.325-0.97,4.151-2.136V611.6h0.729v11.723H450.443z"/>
<path fill="#707070" d="M460.93,623.323V611.6h0.73v2.136c1.042-1.386,2.329-2.356,4.029-2.356v0.873
	c-0.219-0.024-0.365-0.024-0.583-0.024c-1.238,0-2.912,1.215-3.446,2.306v8.787H460.93z"/>
<path fill="#707070" d="M485.938,621.259v-9.005h-1.943V611.6h1.943v-3.205h0.728v3.205h2.379v0.655h-2.379v9.005
	c0,0.995,0.389,1.7,1.263,1.7c0.581,0,1.091-0.291,1.383-0.632l0.436,0.559c-0.462,0.436-0.947,0.728-1.819,0.728
	C486.567,623.614,485.938,622.716,485.938,621.259"/>
<path fill="#707070" d="M505.165,623.323v-1.432c-1.092,1.19-2.405,1.724-4.054,1.724c-2.066,0-4.102-1.407-4.102-3.909
	c0-2.5,2.013-3.908,4.102-3.908c1.649,0,2.961,0.534,4.054,1.723v-2.645c0-1.894-1.507-2.913-3.302-2.913
	c-1.529,0-2.67,0.535-3.761,1.845l-0.56-0.485c1.141-1.336,2.355-2.015,4.321-2.015c2.306,0,4.029,1.164,4.029,3.544v8.47H505.165z
	 M505.165,621.163v-2.912c-0.898-1.19-2.33-1.797-3.86-1.797c-2.136,0-3.495,1.434-3.495,3.252c0,1.822,1.359,3.254,3.495,3.254
	C502.835,622.959,504.267,622.352,505.165,621.163"/>
<path fill="#707070" d="M544.592,623.323v-16.188h0.728v6.48c0.946-1.383,2.477-2.308,4.223-2.308c3.157,0,5.242,2.478,5.242,6.165
	c0,3.715-2.085,6.142-5.242,6.142c-1.845,0-3.421-1.043-4.223-2.257v1.966H544.592z M549.543,622.959
	c2.866,0,4.443-2.402,4.443-5.487c0-3.081-1.577-5.51-4.443-5.51c-1.819,0-3.495,1.142-4.223,2.38v6.287
	C546.047,621.868,547.724,622.959,549.543,622.959"/>
<path fill="#707070" d="M571.491,623.323v-1.432c-1.093,1.19-2.404,1.724-4.055,1.724c-2.062,0-4.103-1.407-4.103-3.909
	c0-2.5,2.015-3.908,4.103-3.908c1.651,0,2.962,0.534,4.055,1.723v-2.645c0-1.894-1.506-2.913-3.302-2.913
	c-1.529,0-2.67,0.535-3.761,1.845l-0.559-0.485c1.141-1.336,2.355-2.015,4.321-2.015c2.306,0,4.03,1.164,4.03,3.544v8.47H571.491z
	 M571.491,621.163v-2.912c-0.897-1.19-2.331-1.797-3.86-1.797c-2.138,0-3.495,1.434-3.495,3.252c0,1.822,1.357,3.254,3.495,3.254
	C569.16,622.959,570.593,622.352,571.491,621.163"/>
<path fill="#707070" d="M581.348,617.448c0-3.374,2.136-6.14,5.534-6.14c1.917,0,3.011,0.728,4.006,1.966l-0.535,0.436
	c-0.946-1.285-2.063-1.749-3.423-1.749c-3.01,0-4.782,2.429-4.782,5.487c0,3.06,1.773,5.511,4.782,5.511
	c1.36,0,2.477-0.486,3.423-1.773l0.535,0.462c-0.996,1.238-2.09,1.966-4.006,1.966C583.484,623.614,581.348,620.823,581.348,617.448
	"/>
<polygon fill="#707070" points="607.831,623.323 602.687,617.425 600.26,619.659 600.26,623.323 599.532,623.323 599.532,607.132 
	600.26,607.132 600.26,618.736 607.906,611.6 608.949,611.6 603.245,616.891 608.876,623.323 "/>
<path fill="#707070" d="M628.422,617.448c0-3.446,2.16-6.14,5.461-6.14c3.326,0,5.462,2.694,5.462,6.14
	c0,3.449-2.136,6.166-5.462,6.166C630.582,623.614,628.422,620.897,628.422,617.448 M638.542,617.448
	c0-2.838-1.649-5.487-4.659-5.487c-2.984,0-4.659,2.649-4.659,5.487c0,2.866,1.674,5.511,4.659,5.511
	C636.893,622.959,638.542,620.314,638.542,617.448"/>
<path fill="#707070" d="M656.388,623.323v-8.18c0-2.451-1.215-3.181-3.033-3.181c-1.605,0-3.326,1.045-4.151,2.211v9.15h-0.729
	V611.6h0.729v1.845c0.872-1.068,2.621-2.136,4.246-2.136c2.33,0,3.666,1.068,3.666,3.834v8.18H656.388z"/>
<rect x="666.877" y="607.132" fill="#707070" width="0.73" height="16.191"/>
<path fill="#707070" d="M677.025,608.88c0-0.387,0.341-0.704,0.704-0.704c0.388,0,0.705,0.317,0.705,0.704
	c0,0.387-0.317,0.704-0.705,0.704C677.366,609.585,677.025,609.268,677.025,608.88 M677.366,611.6h0.728v11.723h-0.728V611.6z"/>
<path fill="#707070" d="M695.765,623.323v-8.18c0-2.451-1.212-3.181-3.034-3.181c-1.6,0-3.325,1.045-4.15,2.211v9.15h-0.728V611.6
	h0.728v1.845c0.876-1.068,2.623-2.136,4.248-2.136c2.33,0,3.666,1.068,3.666,3.834v8.18H695.765z"/>
<path fill="#707070" d="M705.624,617.448c0-3.398,2.356-6.14,5.51-6.14c3.594,0,5.438,2.887,5.438,6.14v0.243h-10.123
	c0.073,2.866,1.942,5.268,4.928,5.268c1.651,0,2.984-0.607,4.078-1.773l0.436,0.462c-1.19,1.238-2.549,1.967-4.515,1.967
	C707.98,623.616,705.624,621.019,705.624,617.448 M711.111,611.963c-3.011,0-4.589,2.768-4.662,5.072h9.346
	C715.795,614.778,714.313,611.963,711.111,611.963"/>
<path fill="#CDCCCB" d="M509.897,546.339c-0.015,0.098-0.11,0.544-0.247,1.253c-0.082,0.408-0.182,0.901-0.297,1.468
	c-0.094,0.571-0.297,1.187-0.473,1.88c-0.198,0.682-0.353,1.441-0.638,2.206c-0.269,0.77-0.523,1.595-0.841,2.429
	c-0.341,0.826-0.674,1.689-1.056,2.546c-0.411,0.841-0.79,1.714-1.246,2.557c-0.474,0.829-0.897,1.688-1.414,2.478
	c-0.253,0.397-0.501,0.798-0.741,1.187c-0.264,0.381-0.525,0.759-0.777,1.129c-0.495,0.752-1.05,1.424-1.543,2.089
	c-0.528,0.638-1.017,1.248-1.508,1.78c-0.477,0.54-0.935,1.023-1.357,1.441c-0.407,0.423-0.796,0.769-1.105,1.061
	c-0.012,0.011-0.022,0.017-0.028,0.027c-0.309,0.269-0.549,0.489-0.737,0.637c-0.049,0.039-0.092,0.079-0.13,0.106
	c-0.127-0.078-0.253-0.148-0.386-0.215l-0.841-1.142c0,0,0.094-0.067,0.264-0.188c0.066-0.048,0.148-0.109,0.246-0.186
	c0.134-0.1,0.294-0.227,0.474-0.369c0.309-0.258,0.692-0.556,1.106-0.939c0.424-0.37,0.885-0.804,1.374-1.299
	c0.502-0.477,1.012-1.039,1.556-1.622c0.512-0.61,1.09-1.233,1.618-1.929c0.27-0.347,0.538-0.693,0.818-1.051
	c0.26-0.369,0.524-0.736,0.788-1.11c0.554-0.744,1.017-1.552,1.528-2.338c0.495-0.797,0.918-1.633,1.381-2.435
	c0.423-0.82,0.796-1.644,1.187-2.436c0.362-0.803,0.659-1.605,0.973-2.349c0.331-0.742,0.528-1.485,0.764-2.149
	c0.213-0.675,0.456-1.281,0.589-1.841c0.143-0.556,0.274-1.039,0.378-1.44C509.753,546.877,509.869,546.437,509.897,546.339"/>
<g>
	<path fill="#CDCCCB" d="M235.648,593.032c56.837-6.226,148.681-12.107,222.971-14.351l0.18-0.583
		c0.124-0.404,0.26-0.801,0.399-1.197C381.778,579.883,289.467,584.648,235.648,593.032"/>
	<path fill="#CDCCCB" d="M790.209,593.032c-56.838-6.226-148.682-12.107-222.971-14.351l-0.18-0.583
		c-0.124-0.404-0.26-0.801-0.399-1.197C644.078,579.883,736.39,584.648,790.209,593.032"/>
	<path fill="#CDCCCB" d="M518.959,478.736c-0.06,1.046-0.458,7.105-1.573,15.743c-0.616,4.755-1.451,10.294-2.59,16.188
		c-1.139,5.893-2.568,12.151-4.393,18.309c-1.819,6.158-4.036,12.227-6.746,17.671c-1.348,2.722-2.815,5.29-4.421,7.605
		c-1.594,2.32-3.316,4.392-5.113,6.136c-0.589,0.571-1.181,1.109-1.782,1.601c-0.016,0.416-0.07,0.834-0.176,1.251
		c-0.064,0.265-0.143,0.529-0.241,0.777c0.064-0.567,0.055-1.123-0.021-1.667c-0.145-1.012-0.525-1.967-1.096-2.794
		c-0.874-1.264-2.199-2.226-3.81-2.617c-2.761-0.675-5.532,0.523-6.999,2.772c5.691,1.066,10.442,4.788,12.904,9.847
		c0.127,0.253,0.243,0.507,0.353,0.765c0.626,0.109,1.226,0.295,1.785,0.559c0.574,0.26,1.107,0.595,1.585,0.99
		c1.634,1.338,2.672,3.371,2.672,5.642c0,0.23-0.01,0.458-0.033,0.682c-0.22-2.371-1.567-4.414-3.507-5.581
		c-0.127-0.078-0.253-0.148-0.386-0.215c-0.556-0.292-1.148-0.51-1.777-0.653c-0.368-0.084-0.741-0.137-1.126-0.16
		c-0.16-0.01-0.319-0.016-0.479-0.016c-3.805,0-6.932,2.909-7.273,6.625c-0.024-0.224-0.033-0.452-0.033-0.682
		c0-3.903,3.062-7.097,6.917-7.302c0.097-0.004,0.197-0.004,0.303-0.01c-0.149-0.237-0.309-0.468-0.469-0.698
		c-3.277-4.652-8.676-7.686-14.79-7.686c-9.572,0-17.402,7.444-18.024,16.863c-0.034-0.408-0.049-0.808-0.049-1.221
		c0-9.984,8.089-18.073,18.073-18.073c1.029,0,2.035,0.094,3.014,0.259c1.057-3.195,4.399-5.092,7.719-4.278
		c1.957,0.48,3.486,1.788,4.311,3.459c0.176-0.153,0.352-0.307,0.528-0.468c1.692-1.54,3.365-3.425,4.953-5.575
		c1.596-2.15,3.085-4.575,4.482-7.169c2.805-5.201,5.18-11.102,7.175-17.133c2.003-6.031,3.624-12.201,4.949-18.03
		c1.32-5.829,2.331-11.32,3.099-16.044C518.271,485.812,518.86,479.775,518.959,478.736"/>
	<path fill="#CDCCCB" d="M564.887,558.815c-2.377,0-4.558,0.792-6.319,2.122v0.005c-1.903,1.435-3.298,3.497-3.877,5.89v0.006
		c-1.215,0.097-2.264,0.786-2.837,1.791c-0.963-2.881-3.067-5.223-5.779-6.509c0.164-0.924,0.517-1.798,1.046-2.563
		c0.874-1.263,2.198-2.226,3.81-2.617c3.234-0.792,6.471,0.974,7.637,3.998c-0.033-0.258-0.082-0.527-0.148-0.785
		c-0.852-3.498-4.377-5.642-7.868-4.783c-1.957,0.478-3.485,1.786-4.311,3.457c-0.175-0.153-0.352-0.307-0.528-0.467
		c-1.692-1.54-3.365-3.426-4.953-5.576c-1.595-2.15-3.084-4.575-4.482-7.169c-2.803-5.201-5.18-11.101-7.174-17.133
		c-2.002-6.031-3.625-12.201-4.949-18.029c-1.321-5.829-2.332-11.321-3.1-16.045c-1.399-8.593-1.986-14.632-2.085-15.67
		c0.06,1.044,0.458,7.104,1.573,15.742c0.616,4.755,1.451,10.294,2.59,16.188c1.138,5.893,2.568,12.151,4.393,18.309
		c1.819,6.159,4.036,12.228,6.746,17.672c1.348,2.722,2.815,5.288,4.422,7.603c1.594,2.321,3.316,4.393,5.113,6.136
		c0.529,0.512,1.061,0.995,1.601,1.441c-1.26-0.495-2.633-0.775-4.069-0.775c-6.125,0-11.089,4.964-11.089,11.084
		c0,0.346,0.015,0.692,0.049,1.035c0.516-5.642,5.262-10.062,11.04-10.062c4.509,0,8.384,2.689,10.117,6.548v0.007l0.242,0.571
		l0.413-0.714c0.559-0.737,1.395-1.244,2.353-1.381v0.006l0.456-0.039c0.016,0,0.037-0.006,0.055-0.006
		c1.764,0,3.237,1.275,3.535,2.958c0.039-0.21,0.06-0.423,0.06-0.644c0-1.835-1.375-3.347-3.151-3.562v-0.005
		c1.688-3.535,5.291-5.97,9.47-5.97c5.449,0,9.929,4.15,10.448,9.461c0.031-0.341,0.048-0.686,0.048-1.033
		C575.383,563.51,570.682,558.815,564.887,558.815"/>
	<path fill="#CDCCCB" d="M530.661,558.98c0,0,1.182,1.299,2.489,2.405c0.326,0.275,0.655,0.543,0.969,0.766
		c0.314,0.231,0.611,0.422,0.861,0.558c0.125,0.078,0.239,0.125,0.339,0.168c0.098,0.046,0.181,0.085,0.244,0.095
		c0.124,0.037,0.194,0.058,0.194,0.058l-0.936,1.993c0,0-0.119-0.084-0.325-0.231c-0.108-0.075-0.209-0.167-0.324-0.276
		c-0.118-0.108-0.248-0.229-0.366-0.365c-0.253-0.272-0.513-0.593-0.761-0.943c-0.259-0.348-0.501-0.729-0.736-1.11
		C531.372,560.573,530.661,558.98,530.661,558.98"/>
</g>
<path fill="#F8B717" d="M388.849,578.635c-4.413,1.939-9.363,2.909-14.856,2.909c-5.122,0-9.705-0.864-13.745-2.592
	c-4.042-1.727-7.497-4.101-10.367-7.128c-2.869-3.022-5.061-6.57-6.572-10.644c-1.513-4.071-2.267-8.422-2.267-13.05
	c0-4.443,0.786-8.701,2.36-12.774c1.574-4.072,3.779-7.651,6.619-10.737c2.837-3.084,6.248-5.537,10.228-7.358
	c3.98-1.819,8.407-2.731,13.283-2.731c2.715,0,5.198,0.186,7.45,0.556c2.253,0.37,4.352,0.924,6.296,1.667
	c1.943,0.74,3.762,1.651,5.461,2.73c1.696,1.079,3.346,2.3,4.951,3.656l-4.72,5.553c-1.236-1.111-2.531-2.112-3.888-3.009
	c-1.358-0.894-2.823-1.666-4.396-2.314c-1.575-0.647-3.302-1.156-5.185-1.528c-1.883-0.37-3.965-0.554-6.247-0.554
	c-3.579,0-6.882,0.711-9.904,2.133c-3.023,1.423-5.616,3.339-7.775,5.749c-2.162,2.41-3.859,5.238-5.091,8.483
	c-1.236,3.245-1.851,6.691-1.851,10.338c0,3.894,0.602,7.496,1.806,10.802c1.203,3.307,2.915,6.168,5.137,8.576
	c2.221,2.411,4.906,4.297,8.052,5.657c3.148,1.359,6.695,2.04,10.644,2.04c3.703,0,7.189-0.635,10.46-1.905
	c3.271-1.269,6.017-2.805,8.239-4.601v-16.172h-19.716v-6.479h26.751v25.757C396.979,574.373,393.26,576.697,388.849,578.635"/>
<polygon fill="#A2C43A" points="450.541,580.433 443.228,580.433 443.228,554.794 416.293,515.64 425.179,515.64 446.975,548.036 
	468.961,515.64 477.476,515.64 450.541,554.701 "/>
<polygon fill="#08896F" points="522.922,580.433 515.61,580.433 515.61,522.398 493.858,522.398 493.858,515.64 544.675,515.64 
	544.675,522.398 522.922,522.398 "/>
<path fill="#015F6E" d="M603.935,516.797c2.586,0.771,4.804,1.852,6.652,3.239c1.848,1.389,3.264,3.088,4.25,5.092
	c0.986,2.006,1.479,4.243,1.479,6.71c0,2.161-0.293,4.043-0.878,5.646c-0.583,1.606-1.369,3.024-2.353,4.258
	c-0.986,1.234-2.078,2.267-3.279,3.1c-1.201,0.834-2.447,1.528-3.738,2.084c1.907,0.555,3.709,1.28,5.403,2.175
	c1.694,0.895,3.157,1.96,4.39,3.193c1.232,1.234,2.218,2.717,2.956,4.444c0.739,1.727,1.108,3.7,1.108,5.923
	c0,2.778-0.553,5.276-1.662,7.498c-1.108,2.222-2.695,4.088-4.757,5.598c-2.064,1.514-4.542,2.671-7.437,3.472
	c-2.897,0.802-6.102,1.203-9.611,1.203h-28.736V515.64h27.531C598.454,515.64,601.347,516.026,603.935,516.797 M604.849,541.546
	c2.77-1.982,4.155-4.896,4.155-8.737c0-3.284-1.23-5.887-3.691-7.809c-2.463-1.919-6.002-2.881-10.618-2.881h-19.661v22.399h19.107
	C598.511,544.518,602.081,543.529,604.849,541.546 M608.366,570.887c2.832-2.044,4.246-4.925,4.246-8.644
	c0-3.592-1.447-6.364-4.338-8.317c-2.893-1.951-7.171-2.927-12.834-2.927h-20.406v22.955h21.699
	C601.654,573.954,605.533,572.933,608.366,570.887"/>
<path fill="#02508D" d="M704.616,560.764c-1.604,4.041-3.857,7.605-6.756,10.69c-2.901,3.087-6.387,5.54-10.46,7.358
	c-4.073,1.82-8.578,2.731-13.513,2.731c-4.939,0-9.428-0.896-13.468-2.684c-4.044-1.789-7.513-4.211-10.414-7.267
	c-2.901-3.054-5.138-6.603-6.71-10.644c-1.575-4.04-2.362-8.315-2.362-12.819c0-4.504,0.803-8.778,2.408-12.819
	c1.603-4.04,3.856-7.605,6.757-10.692c2.9-3.084,6.387-5.537,10.459-7.358c4.072-1.819,8.575-2.731,13.513-2.731
	c4.936,0,9.425,0.896,13.469,2.686c4.041,1.789,7.511,4.211,10.412,7.264c2.899,3.055,5.137,6.604,6.711,10.644
	c1.573,4.043,2.361,8.317,2.361,12.82C707.025,552.449,706.22,556.723,704.616,560.764 M697.535,537.67
	c-1.266-3.271-3.039-6.108-5.322-8.515c-2.284-2.408-4.982-4.319-8.098-5.739c-3.117-1.42-6.526-2.129-10.227-2.129
	c-3.703,0-7.113,0.693-10.228,2.083c-3.116,1.388-5.787,3.286-8.007,5.694c-2.222,2.404-3.967,5.228-5.231,8.467
	c-1.265,3.239-1.897,6.709-1.897,10.413c0,3.703,0.632,7.189,1.897,10.459c1.264,3.273,3.038,6.109,5.322,8.518
	c2.283,2.406,4.982,4.319,8.099,5.737c3.116,1.42,6.525,2.13,10.228,2.13c3.704,0,7.113-0.695,10.228-2.083
	c3.115-1.389,5.785-3.286,8.008-5.692c2.22-2.407,3.962-5.229,5.228-8.469c1.266-3.24,1.898-6.71,1.898-10.413
	S698.801,540.942,697.535,537.67"/>
</svg>
